<?xml version="1.0" encoding="utf-8"?>
<!-- Generator: Adobe Illustrator 26.5.0, SVG Export Plug-In . SVG Version: 6.00 Build 0)  -->
<svg version="1.1" id="Calque_1" xmlns="http://www.w3.org/2000/svg" xmlns:xlink="http://www.w3.org/1999/xlink" x="0px" y="0px"
	 viewBox="0 0 1000 1000" style="enable-background:new 0 0 1000 1000;" xml:space="preserve">
<style type="text/css">
	.st0{fill:#F29104;}
	.st1{fill:#ECECEC;}
	.st2{fill:#C7C7C6;}
</style>
<g>
	<path class="st0" d="M482.73,28.69c-0.34,0-0.69-0.09-1-0.28c-0.9-0.55-1.17-1.73-0.62-2.62c4.1-6.64,11.36-10.49,18.92-10.03
		c9.69,0.58,15.02,7.87,15.99,9.33c0.58,0.88,0.35,2.06-0.53,2.64c-0.88,0.58-2.06,0.35-2.64-0.53c-0.49-0.73-4.99-7.16-13.04-7.64
		c-6.16-0.35-12.08,2.79-15.45,8.23C484,28.37,483.37,28.69,482.73,28.69z"/>
</g>
<g>
	<g>
		<g>
			<path class="st1" d="M641.84,247.4L514.71,27.2c-3.32-5.76-9.47-9.31-16.12-9.31c-6.66,0-12.79,3.55-16.13,9.31L355.34,247.4
				c-3.33,5.77-3.33,12.86,0,18.61c3.32,5.77,9.47,9.31,16.12,9.31h75.4c7.85-2.54,13.52-9.92,13.52-18.61
				c0-8.7-5.68-16.07-13.54-18.61H403.7l94.89-164.35l94.89,164.35h-81.36c-7.85,2.54-13.53,9.92-13.53,18.61
				c0,1.06,0.08,2.1,0.25,3.11l3,7.68c1.53,2.32,3.53,4.29,5.88,5.76c1.35,0.86,2.82,1.56,4.38,2.06h113.61
				c6.66,0,12.8-3.54,16.13-9.31C645.16,260.26,645.16,253.17,641.84,247.4z"/>
		</g>
		<path class="st1" d="M460.38,256.71c0,8.7-5.67,16.07-13.52,18.61h-12.11c-7.85-2.54-13.51-9.92-13.51-18.61
			c0-8.7,5.68-16.07,13.53-18.61h12.08C454.7,240.64,460.38,248.01,460.38,256.71z"/>
		<path class="st1" d="M537.73,256.71c0,1.77-0.24,3.49-0.68,5.12c-1.73,6.38-6.59,11.47-12.84,13.49H512.1
			c-1.55-0.5-3.02-1.2-4.38-2.06c-2.35-1.47-4.36-3.44-5.88-5.76l-3-7.68c-0.17-1.02-0.25-2.05-0.25-3.11
			c0-8.7,5.68-16.07,13.53-18.61c1.9-0.62,3.93-0.95,6.04-0.95c2.11,0,4.14,0.34,6.04,0.95c4.08,1.32,7.57,3.94,9.99,7.38
			c1.78,2.52,2.97,5.48,3.39,8.68C537.68,254.99,537.73,255.85,537.73,256.71z"/>
	</g>
	<g>
		<path class="st1" d="M540.1,260.64l-3.04,1.19l-29.33,11.43c-2.35-1.47-4.36-3.44-5.88-5.76l-3-7.68l-18.02-46.17l35.53-13.87
			l14.95,38.31l2.88,7.38l3.39,8.68L540.1,260.64z"/>
	</g>
</g>
<path class="st0" d="M498.59,207.35l-19.85,7.66c-2.56,0.99-5.29-1-5.13-3.74l1.54-26.99l1.4-24.51c0.18-3.25,4.11-4.76,6.42-2.48
	l17.5,17.22l19.27,18.96c1.96,1.93,1.27,5.23-1.29,6.22L498.59,207.35z"/>
<g>
	<path class="st0" d="M442.6,259h-15.6c-1.26,0-2.29-1.02-2.29-2.29c0-1.26,1.02-2.29,2.29-2.29h15.6c1.26,0,2.29,1.02,2.29,2.29
		C444.89,257.97,443.87,259,442.6,259z"/>
</g>
<g>
	<path class="st0" d="M406.97,259h-15.6c-1.26,0-2.29-1.02-2.29-2.29c0-1.26,1.02-2.29,2.29-2.29h15.6c1.26,0,2.29,1.02,2.29,2.29
		C409.26,257.97,408.23,259,406.97,259z"/>
</g>
<g>
	<path class="st0" d="M380.97,241.99c-0.38,0-0.77-0.1-1.13-0.3c-1.1-0.63-1.48-2.02-0.85-3.12l7.74-13.54
		c0.63-1.1,2.02-1.48,3.12-0.85c1.1,0.63,1.48,2.02,0.85,3.12l-7.74,13.54C382.53,241.57,381.76,241.99,380.97,241.99z"/>
</g>
<g>
	<path class="st0" d="M402.11,204.01c-0.38,0-0.77-0.1-1.13-0.3c-1.1-0.63-1.48-2.02-0.85-3.12l7.74-13.54
		c0.63-1.1,2.02-1.48,3.12-0.85c1.1,0.63,1.48,2.02,0.85,3.12l-7.74,13.54C403.67,203.59,402.9,204.01,402.11,204.01z"/>
</g>
<g>
	<path class="st0" d="M423.15,166.93c-0.38,0-0.77-0.1-1.13-0.3c-1.1-0.63-1.48-2.02-0.85-3.12l7.74-13.54
		c0.63-1.1,2.02-1.48,3.12-0.85c1.1,0.63,1.48,2.02,0.85,3.12l-7.74,13.54C424.72,166.52,423.95,166.93,423.15,166.93z"/>
</g>
<g>
	<path class="st0" d="M444.3,128.95c-0.38,0-0.77-0.1-1.13-0.3c-1.1-0.63-1.48-2.02-0.85-3.12l7.74-13.54
		c0.63-1.1,2.02-1.48,3.12-0.85c1.1,0.63,1.48,2.02,0.85,3.12l-7.74,13.54C445.86,128.53,445.09,128.95,444.3,128.95z"/>
</g>
<g>
	<path class="st0" d="M464.26,94.95c-0.38,0-0.77-0.1-1.13-0.3c-1.1-0.63-1.48-2.02-0.85-3.12l7.74-13.54
		c0.63-1.1,2.02-1.48,3.12-0.85c1.1,0.63,1.48,2.02,0.85,3.12l-7.74,13.54C465.83,94.53,465.06,94.95,464.26,94.95z"/>
</g>
<g>
	<path class="st0" d="M485.41,56.97c-0.38,0-0.77-0.1-1.13-0.3c-1.1-0.63-1.48-2.02-0.85-3.12L491.16,40
		c0.63-1.1,2.02-1.48,3.12-0.85c1.1,0.63,1.48,2.02,0.85,3.12l-7.74,13.54C486.97,56.55,486.2,56.97,485.41,56.97z"/>
</g>
<g>
	<path class="st0" d="M616.34,241.99c-0.79,0-1.57-0.41-1.99-1.15l-7.74-13.54c-0.63-1.1-0.25-2.49,0.85-3.12
		c1.1-0.63,2.49-0.25,3.12,0.85l7.74,13.54c0.63,1.1,0.25,2.49-0.85,3.12C617.12,241.89,616.73,241.99,616.34,241.99z"/>
</g>
<g>
	<path class="st0" d="M595.2,204.01c-0.79,0-1.57-0.41-1.99-1.15l-7.74-13.54c-0.63-1.1-0.25-2.49,0.85-3.12
		c1.09-0.63,2.49-0.25,3.12,0.85l7.74,13.54c0.63,1.1,0.25,2.49-0.85,3.12C595.98,203.91,595.59,204.01,595.2,204.01z"/>
</g>
<g>
	<path class="st0" d="M574.16,166.93c-0.79,0-1.57-0.41-1.99-1.15l-7.74-13.54c-0.63-1.1-0.25-2.49,0.85-3.12
		c1.09-0.63,2.49-0.25,3.12,0.85l7.74,13.54c0.63,1.1,0.25,2.49-0.85,3.12C574.93,166.83,574.54,166.93,574.16,166.93z"/>
</g>
<g>
	<path class="st0" d="M553.01,128.95c-0.79,0-1.57-0.41-1.99-1.15l-7.74-13.54c-0.63-1.1-0.25-2.49,0.85-3.12
		c1.09-0.63,2.49-0.25,3.12,0.85l7.74,13.54c0.63,1.1,0.25,2.49-0.85,3.12C553.79,128.85,553.4,128.95,553.01,128.95z"/>
</g>
<g>
	<path class="st0" d="M533.04,94.95c-0.79,0-1.57-0.41-1.99-1.15l-7.74-13.54c-0.63-1.1-0.25-2.49,0.85-3.12
		c1.1-0.63,2.49-0.25,3.12,0.85l7.74,13.54c0.63,1.1,0.25,2.49-0.85,3.12C533.82,94.85,533.43,94.95,533.04,94.95z"/>
</g>
<g>
	<path class="st0" d="M511.9,56.97c-0.79,0-1.57-0.41-1.99-1.15l-7.74-13.54c-0.63-1.1-0.25-2.49,0.85-3.12
		c1.1-0.63,2.49-0.25,3.12,0.85l7.74,13.54c0.63,1.1,0.25,2.49-0.85,3.12C512.68,56.87,512.29,56.97,511.9,56.97z"/>
</g>
<g>
	<path class="st0" d="M442.6,259h-15.6c-1.26,0-2.29-1.02-2.29-2.29c0-1.26,1.02-2.29,2.29-2.29h15.6c1.26,0,2.29,1.02,2.29,2.29
		C444.89,257.97,443.87,259,442.6,259z"/>
</g>
<g>
	<path class="st0" d="M406.97,259h-15.6c-1.26,0-2.29-1.02-2.29-2.29c0-1.26,1.02-2.29,2.29-2.29h15.6c1.26,0,2.29,1.02,2.29,2.29
		C409.26,257.97,408.23,259,406.97,259z"/>
</g>
<g>
	<path class="st0" d="M604.1,259h-15.6c-1.26,0-2.29-1.02-2.29-2.29c0-1.26,1.02-2.29,2.29-2.29h15.6c1.26,0,2.29,1.02,2.29,2.29
		C606.38,257.97,605.36,259,604.1,259z"/>
</g>
<g>
	<path class="st0" d="M568.46,259h-15.6c-1.26,0-2.29-1.02-2.29-2.29c0-1.26,1.02-2.29,2.29-2.29h15.6c1.26,0,2.29,1.02,2.29,2.29
		C570.75,257.97,569.72,259,568.46,259z"/>
</g>
<g>
	<path class="st0" d="M531.66,256.99c-0.13,0.67-0.76,1.14-1.45,1.14H518.7c-0.41,0-0.77-0.24-0.93-0.62l-0.95-2.23h13.45
		C531.14,255.29,531.83,256.08,531.66,256.99z"/>
</g>
<g>
	<path class="st0" d="M520.77,258.13h-2.07c-0.41,0-0.77-0.24-0.93-0.62l-0.95-2.23l-4.85-11.35c-0.31-0.72,0.02-1.56,0.75-1.87
		c0.72-0.31,1.56,0.03,1.87,0.75l5.33,12.47l0.8,1.88C520.85,257.48,520.86,257.82,520.77,258.13z"/>
</g>
<path class="st2" d="M516.6,200.4c-5.9,2.28-11.81,4.56-17.71,6.83c-5.96,2.3-11.92,4.6-17.87,6.9c4.15,0.11,11.07-0.23,18.93-3.22
	C508.06,207.83,513.57,203.3,516.6,200.4z"/>
<g>
	<path class="st0" d="M502.78,219.85c-0.89,0-1.73-0.52-2.1-1.39l-6.13-14.34c-0.5-1.16,0.04-2.51,1.21-3c1.16-0.5,2.51,0.04,3,1.2
		l6.13,14.34c0.5,1.16-0.04,2.51-1.21,3C503.39,219.79,503.08,219.85,502.78,219.85z"/>
</g>
<path class="st1" d="M495.57,208.52c1.01-0.39,2.01-0.78,3.02-1.17c1.17-0.45,2.34-0.9,3.51-1.35c-5.13-9.7-10.26-19.39-15.38-29.09
	C489.66,187.45,492.62,197.98,495.57,208.52z"/>
<g>
	<path class="st0" d="M627.76,277.12c-0.95,0-1.77-0.71-1.89-1.67c-0.13-1.04,0.61-2,1.66-2.13c0.87-0.11,8.63-1.26,12.66-8.25
		c3.08-5.35,2.91-12.06-0.45-17.5c-0.55-0.9-0.28-2.07,0.62-2.62c0.89-0.55,2.07-0.28,2.62,0.62c4.1,6.63,4.3,14.84,0.51,21.4
		c-4.85,8.41-13.76,9.92-15.49,10.13C627.92,277.11,627.84,277.12,627.76,277.12z"/>
</g>
<path class="st1" d="M483.41,464.75c-0.73,0.89-1.71,2.02-2.94,3.41c-1.23,1.38-2.44,2.96-3.64,4.74c-1.78,2.66-3.16,5.3-4.15,7.92
	c-0.99,2.61-1.49,5.36-1.49,8.23c0,2.67,0.3,4.9,0.9,6.7c0.6,1.8,1.4,3.23,2.39,4.27c0.99,1.04,2.14,1.79,3.45,2.23
	c1.31,0.44,2.69,0.67,4.15,0.67c1.62,0,3.07-0.61,4.35-1.84c1.28-1.23,2.42-2.73,3.41-4.51c0.99-1.78,1.84-3.63,2.54-5.57
	c0.71-1.93,1.29-3.61,1.76-5.02c2.19-6.27,4.55-11.76,7.09-16.46c2.53-4.7,5.35-8.62,8.46-11.76c3.11-3.14,6.53-5.49,10.26-7.05
	c3.73-1.57,7.9-2.35,12.49-2.35c4.86,0,9.27,0.98,13.24,2.94c3.97,1.96,7.36,4.75,10.18,8.39c2.82,3.63,5,8.01,6.54,13.13
	c1.54,5.12,2.31,10.84,2.31,17.17c0,4.75-0.54,9.31-1.61,13.68c-1.07,4.36-2.78,8.66-5.13,12.89c-1.05,1.78-2.13,3.46-3.25,5.06
	c-1.12,1.59-2.21,2.99-3.25,4.19c-1.05,1.2-2.04,2.16-2.98,2.86c-0.94,0.71-1.75,1.06-2.43,1.06c-0.68,0-1.31-0.17-1.88-0.51
	c-0.58-0.34-1.23-0.85-1.96-1.53l-12.78-11.99c-0.89-0.89-1.33-1.78-1.33-2.67c0-0.73,0.21-1.4,0.63-2c0.42-0.6,0.94-1.27,1.57-2
	l0.63-0.71c0.89-1.05,1.8-2.21,2.74-3.49c0.94-1.28,1.79-2.65,2.55-4.12c0.76-1.46,1.38-3.01,1.88-4.62
	c0.5-1.62,0.74-3.27,0.74-4.94c0-1.72-0.14-3.34-0.43-4.86c-0.29-1.52-0.74-2.85-1.37-4c-0.63-1.15-1.45-2.06-2.47-2.74
	c-1.02-0.68-2.26-1.02-3.72-1.02c-1.46,0-2.73,0.36-3.8,1.1c-1.07,0.73-2.06,1.83-2.98,3.29c-0.91,1.46-1.78,3.28-2.59,5.45
	c-0.81,2.17-1.68,4.69-2.63,7.56c-1.83,5.54-3.75,10.65-5.76,15.32c-2.01,4.68-4.39,8.71-7.13,12.11c-2.74,3.4-6.02,6.05-9.84,7.96
	c-3.81,1.91-8.44,2.86-13.87,2.86c-5.75,0-10.96-1.18-15.64-3.53c-4.68-2.35-8.66-5.58-11.95-9.68c-3.29-4.1-5.84-8.92-7.64-14.46
	c-1.8-5.54-2.7-11.5-2.7-17.87c0-6.01,1.08-11.91,3.22-17.71c2.15-5.8,5.03-11.21,8.65-16.22c1.52-2.09,3.01-3.85,4.48-5.29
	c1.47-1.44,2.65-2.57,3.54-3.41l0.24-0.24c0.1-0.05,0.17-0.11,0.2-0.16c0.03-0.05,0.06-0.11,0.12-0.16c0.1-0.05,0.17-0.11,0.2-0.16
	c0.03-0.05,0.06-0.11,0.12-0.16c1.31-1.2,2.36-1.8,3.15-1.8c0.89,0,1.89,0.6,2.99,1.8l12.93,13.56c0.78,1.1,1.18,1.99,1.18,2.67
	c0,0.47-0.16,0.97-0.47,1.49C484.51,463.39,484.04,464.01,483.41,464.75z"/>
<path class="st1" d="M558.74,553.24c0.89,0.05,1.68,0.38,2.39,0.98c0.7,0.6,1.06,1.4,1.06,2.39v23.28c0,0.78-0.33,1.59-0.98,2.43
	c-0.65,0.84-1.48,1.25-2.47,1.25H521.5v38.96h37.23c0.94,0,1.75,0.33,2.43,0.98c0.68,0.65,1.02,1.5,1.02,2.54v22.91
	c0,1.04-0.26,1.95-0.78,2.74c-0.52,0.78-1.36,1.17-2.51,1.17H449.23c-1.15,0-2.01-0.34-2.59-1.02c-0.58-0.68-0.86-1.56-0.86-2.66
	v-23.14c0-1.04,0.29-1.89,0.86-2.54c0.57-0.65,1.44-0.98,2.59-0.98h44.52v-38.96h-44.52c-1.1,0-1.95-0.35-2.55-1.06
	c-0.6-0.71-0.9-1.66-0.9-2.86v-23.04c0-2.2,1.02-3.32,3.06-3.37H558.74z"/>
<path class="st1" d="M558.74,672.14c1.04,0,1.88,0.35,2.5,1.06c0.62,0.7,0.94,1.58,0.94,2.63v84.34c0,0.94-0.29,1.78-0.86,2.51
	c-0.57,0.73-1.43,1.15-2.58,1.26h-19.46c-0.94,0-1.84-0.33-2.7-0.98c-0.86-0.65-1.29-1.58-1.29-2.78v-27.04h-85.83
	c-0.94,0-1.79-0.34-2.55-1.02c-0.76-0.68-1.14-1.56-1.14-2.66v-22.98c0-0.89,0.35-1.72,1.06-2.5c0.7-0.78,1.58-1.17,2.63-1.17h85.83
	v-26.96c0-1.05,0.34-1.92,1.02-2.63c0.68-0.71,1.67-1.06,2.97-1.06H558.74z"/>
<path class="st1" d="M559.13,800.85c0.31,0.05,0.65,0.22,1.02,0.51c0.37,0.29,0.7,0.64,1.02,1.06c0.31,0.42,0.56,0.86,0.75,1.33
	c0.18,0.47,0.27,0.91,0.27,1.33v20.07c0,0.89-0.27,1.65-0.82,2.27c-0.55,0.63-1.03,1.1-1.45,1.41l-4.47,1.96l-106.13,41.15
	c-1.05,0.42-1.9,0.34-2.55-0.23c-0.65-0.58-0.98-1.57-0.98-2.98v-22.5c0-1.2,0.22-2.13,0.67-2.78c0.44-0.65,1.19-1.16,2.23-1.53
	c2.66-1.05,5.32-2.07,7.96-3.06c2.64-0.99,5.29-1.99,7.96-2.98v-41.62c-2.67-0.99-5.32-2-7.96-3.02c-2.64-1.02-5.29-2.03-7.96-3.02
	c-1.93-0.68-2.9-2.01-2.9-4v-23.12c0-0.99,0.26-1.82,0.78-2.47c0.52-0.65,1.31-0.77,2.35-0.35L559.13,800.85z M525.58,815.11
	c-2.67-0.99-5.54-2-8.62-3.02c-3.08-1.02-6.19-2.03-9.33-3.02c-3.14-0.99-6.23-2-9.29-3.02c-3.06-1.02-5.92-2.03-8.58-3.02v24.06
	L525.58,815.11z"/>
<path class="st1" d="M558.58,887.69c1.1,0,1.97,0.29,2.63,0.86c0.65,0.57,0.98,1.44,0.98,2.59v50.63c0,5.38-1.01,10.42-3.02,15.13
	c-2.01,4.7-4.74,8.8-8.19,12.31c-3.45,3.5-7.49,6.26-12.11,8.27c-4.62,2.01-9.55,3.02-14.78,3.02c-3.55,0-6.94-0.48-10.15-1.45
	c-3.21-0.97-6.22-2.31-9.01-4.04c-2.8-1.72-5.33-3.78-7.6-6.15c-2.27-2.38-4.22-4.98-5.84-7.8l-37.94,20.14
	c-0.73,0.37-1.59,0.84-2.59,1.41c-0.99,0.57-1.85,0.86-2.59,0.86c-0.84,0-1.48-0.27-1.92-0.82c-0.44-0.55-0.67-1.29-0.67-2.23
	v-26.89c0-0.89,0.26-1.68,0.78-2.39c0.52-0.71,1.23-1.16,2.12-1.37l35.82-19.05v-12.7h-35.35c-2.25,0-3.37-1.2-3.37-3.61v-23.28
	c0-1.05,0.27-1.88,0.82-2.51c0.55-0.63,1.4-0.94,2.55-0.94H558.58z M523.78,949.07c1.57,0,3.14-0.29,4.7-0.86
	c1.57-0.58,3-1.38,4.31-2.43c1.31-1.05,2.4-2.3,3.29-3.76c0.89-1.46,1.46-3.08,1.73-4.86c0.1-1.46,0.2-2.83,0.27-4.11
	c0.08-1.28,0.12-2.68,0.12-4.19v-10.82h-28.77v14.42c0,0.94,0.03,1.78,0.08,2.51c0.05,0.73,0.13,1.54,0.23,2.43
	c0.21,1.83,0.75,3.47,1.61,4.94c0.86,1.46,1.93,2.69,3.21,3.68c1.28,0.99,2.72,1.75,4.31,2.27
	C520.47,948.8,522.1,949.07,523.78,949.07z"/>
<path class="st1" d="M444.45,368.99l0.15-46.91c0.02-6.05,6.29-10.07,11.79-7.55l54.21,24.76l49.22,22.48
	c6.52,2.98,6.49,12.25-0.05,15.18l-49.37,22.17l-54.37,24.41c-5.52,2.48-11.76-1.57-11.74-7.63L444.45,368.99z"/>
<path class="st0" d="M444.5,352.5c-0.01,2.38-0.04,14.12-0.05,16.5c-0.01,2.76-0.02,15.17-0.03,17.94
	c24.02-2.77,48.04-15.19,72.06-17.97C492.48,366.59,468.5,354.87,444.5,352.5z"/>
<g>
	<rect x="473.66" y="354.16" class="st1" width="12.54" height="29.72"/>
</g>
</svg>
